<svg width="49" height="61" viewBox="0 0 49 61" fill="none" xmlns="http://www.w3.org/2000/svg">
<path d="M20.8984 0H21.6797L23.5352 0.878906L25.1953 1.5625L26.7578 2.14844L29.3945 3.22266L30.4688 3.51562L31.4453 4.00391L33.5938 4.88281L34.8633 5.37109L35.1562 5.56641H40.0391L41.4062 5.95703L42.4805 6.73828L43.1641 7.42188L43.9453 8.78906L44.3359 10.0586L44.4336 11.4258L44.7266 11.6211V11.8164L45.2148 12.0117L47.0703 13.8672L47.4609 14.8438L48.1445 16.2109L48.6328 17.7734L48.8281 19.043V21.3867L48.4375 23.1445L47.6562 25L46.7773 26.4648L46.582 26.8555L47.0703 26.9531L47.168 27.2461L47.2656 29.1992V40.332L46.7773 42.0898L45.8984 43.75L45.1172 44.7266L44.2383 45.6055L42.8711 46.4844L41.3086 47.0703L40.8203 47.168H22.9492L22.8516 48.5352L22.4609 48.9258L19.8242 49.3164L19.1406 49.4141V52.832L18.75 53.3203L16.6016 53.5156H15.7227L15.8203 55.1758V56.3477L15.4297 56.6406L12.8906 56.8359L12.793 59.2773L12.6953 59.5703L12.5 59.668L10.6445 59.8633L7.12891 60.4492L4.39453 60.6445L4.19922 60.2539L4.10156 57.5195L3.90625 54.2969L3.71094 53.0273L4.39453 52.2461L5.17578 51.4648L5.85938 50.6836L6.93359 49.5117L8.20312 47.9492L8.78906 47.4609L8.88672 47.2656L6.73828 47.168L5.46875 46.7773L3.90625 45.9961L2.83203 45.1172L1.95312 44.2383L1.07422 42.8711L0.390625 41.4062L0.0976562 40.332L0 18.2617V10.7422L0.488281 8.49609L0.976562 7.22656L1.66016 6.25L2.53906 5.27344L3.61328 4.29688L4.98047 3.41797L6.73828 2.83203H13.8672L14.0625 3.02734L13.8672 3.125L13.7695 3.61328L15.625 2.73438L17.4805 1.66016L19.043 0.878906L20.8984 0Z" fill="#F1F5F7"/>
<path d="M21.0938 1.26953L21.875 1.36719L24.707 2.53906L28.418 4.10156L31.25 5.27344L33.8867 6.44531L34.8633 6.93359L34.9609 9.96094L33.6914 10.4492L32.8125 10.9375H32.6172V9.375L31.7383 9.17969L30.4688 8.59375V11.8164L31.1523 12.1094L30.957 12.5977L30.2734 13.1836L28.9062 15.2344L28.418 16.3086L27.9297 18.5547V21.875L28.6133 24.5117L28.7109 25.0977L28.0273 25.6836L27.3438 26.4648L27.0508 26.5625L26.9531 25.293L25.4883 25L24.3164 24.6094V28.125L24.9023 28.2227L25.4883 28.6133L24.9023 29.2969L23.6328 30.7617L22.5586 31.9336L21.6797 33.0078L20.6055 34.1797L19.7266 35.1562L18.5547 36.5234L17.8711 37.3047L16.9922 37.5977L16.0156 37.793L15.918 39.1602L15.625 40.0391L14.9414 40.7227L14.1602 41.4062L13.2812 42.2852H13.1836L13.2812 5.46875L14.7461 4.58984L15.8203 4.00391L17.4805 3.02734L19.7266 1.85547L20.7031 1.36719L21.0938 1.26953Z" fill="#304B5D"/>
<path d="M6.73828 2.83203H13.8672L14.0625 3.02734L13.8672 3.125L13.6719 3.71094L12.8906 4.10156L12.1094 4.29688V36.2305L12.207 37.207V39.9414L12.1094 43.5547L12.0117 43.8477H11.8164V38.3789L11.9141 37.5977L10.5469 37.8906H9.76562V44.1406L9.66797 44.3359H11.3281L11.1328 44.7266L10.2539 45.7031L9.57031 46.4844L8.98438 47.168H6.73828L5.46875 46.7773L3.90625 45.9961L2.83203 45.1172L1.95312 44.2383L1.07422 42.8711L0.390625 41.4062L0.0976562 40.332L0 18.2617V10.7422L0.488281 8.49609L0.976562 7.22656L1.66016 6.25L2.53906 5.27344L3.61328 4.29688L4.98047 3.41797L6.73828 2.83203Z" fill="#7BB5D8"/>
<path d="M46.3867 26.9531H47.0703L47.168 27.2461L47.2656 29.1992V40.332L46.7773 42.0898L45.8984 43.75L45.1172 44.7266L44.2383 45.6055L42.8711 46.4844L41.3086 47.0703L40.8203 47.168H22.9492L22.8516 46.875L22.7539 45.0195L24.0234 44.8242H25.3906L25.7812 44.7266V41.7969L26.9531 41.6016H27.4414V38.8672L28.9062 38.5742L30.2734 38.4766V44.043L29.3945 44.2383L32.6172 44.3359V37.6953L31.0547 37.5977L30.5664 37.5L30.3711 36.1328H32.4219L32.9102 35.8398L33.8867 33.9844L34.668 32.7148L35.1562 31.8359L35.7422 31.0547L36.0352 29.9805L37.3047 30.2734L37.8906 30.3711H39.7461L41.2109 29.9805L42.6758 29.4922L43.8477 29.0039L44.7266 28.418L45.5078 27.832L46.3867 26.9531Z" fill="#7CB5D8"/>
<path d="M37.4023 11.1328H38.8672L40.8203 11.4258L42.6758 12.1094L44.1406 13.0859L44.8242 13.6719V13.8672H45.0195L46.0938 15.332L46.875 16.8945L47.2656 18.457L47.3633 19.3359V21.3867L46.9727 23.0469L46.582 23.9258L45.9961 25L44.7266 26.5625L43.5547 27.5391L41.8945 28.418L40.1367 28.9062L39.5508 29.0039H37.9883L35.8398 28.5156L34.5703 28.0273L33.4961 27.3438L32.2266 26.4648V26.2695L31.8359 26.0742L30.5664 24.707L29.8828 23.6328L29.3945 22.168L29.1992 20.9961V18.8477L29.5898 17.2852L29.9805 16.1133L30.957 14.6484L32.0312 13.4766L32.9102 12.6953L34.082 11.9141L35.4492 11.4258L36.4258 11.2305L37.4023 11.1328Z" fill="#213645"/>
<path d="M21.4844 1.26953L23.0469 1.85547L25.8789 3.02734L28.9062 4.29688L31.4453 5.37109L33.8867 6.44531L34.8633 6.93359L34.9609 9.96094L33.6914 10.4492L32.8125 10.9375H32.6172V9.375L31.7383 9.17969L30.4688 8.59375V11.8164L31.1523 12.1094L30.957 12.5977L30.2734 13.1836L28.9062 15.2344L28.418 16.3086L27.9297 18.5547V21.875L28.6133 24.5117L28.7109 25.0977L28.0273 25.6836L27.3438 26.4648L27.0508 26.5625L26.9531 25.293L25.4883 25L24.3164 24.6094V28.125L24.9023 28.2227L25.4883 28.6133L24.9023 29.2969L23.6328 30.7617L22.5586 31.9336L21.875 32.7148L21.6797 32.8125L21.582 32.6172L21.4844 30.1758V1.26953Z" fill="#213645"/>
<path d="M6.73828 2.83203H13.8672L14.0625 3.02734L13.8672 3.125L13.6719 3.71094L12.8906 4.10156L12.1094 4.29688L12.0117 6.34766H11.9141L11.8164 5.56641L8.00781 5.66406L6.73828 5.85938L5.56641 6.34766L4.49219 7.22656L3.61328 8.59375L3.22266 9.76562L3.02734 11.0352V27.0508L3.125 40.0391L3.51562 41.2109L4.00391 42.0898L4.88281 43.0664L5.85938 43.75L6.83594 44.1406L7.91016 44.3359H11.3281L11.1328 44.7266L10.2539 45.7031L9.57031 46.4844L8.98438 47.168H6.73828L5.46875 46.7773L3.90625 45.9961L2.83203 45.1172L1.95312 44.2383L1.07422 42.8711L0.390625 41.4062L0.0976562 40.332L0 18.2617V10.7422L0.488281 8.49609L0.976562 7.22656L1.66016 6.25L2.53906 5.27344L3.61328 4.29688L4.98047 3.41797L6.73828 2.83203Z" fill="#213645"/>
<path d="M10.3516 5.56641H11.8164L11.9141 5.76172L12.1094 5.56641V36.2305L12.207 37.207V39.9414L12.1094 43.5547L12.0117 43.8477H11.8164V38.3789L11.9141 37.5977L10.5469 37.8906H9.76562V41.8945L9.66797 44.043L8.78906 44.1406H7.71484V10.2539L8.00781 10.1562H9.08203L9.86328 9.86328L10.0586 9.47266L10.4492 9.375L10.6445 8.88672H10.8398L10.9375 8.39844H11.1328L11.2305 7.91016V7.22656L10.9375 6.73828L10.4492 6.15234V5.95703L9.17969 5.76172V5.66406L10.3516 5.56641Z" fill="#639EC2"/>
<path d="M32.6172 28.2227L33.0078 28.3203L33.7891 28.8086L35.1562 29.3945L34.9609 29.8828L33.9844 31.3477L32.9102 33.0078L31.9336 34.8633L29.5898 34.9609L29.1016 34.7656L29.0039 37.4023L27.0508 37.793L26.7578 37.8906H26.0742L26.1719 39.3555V40.5273L24.9023 40.7227H24.2188L24.3164 42.3828V43.457L21.6797 43.9453H21.1914L21.2891 44.4336L21.4844 46.9727V47.6562L18.6523 48.0469H17.5781L17.8711 51.1719V51.9531L15.0391 52.3438H14.2578L14.4531 55.3711L12.3047 55.6641H11.4258L11.5234 58.2031L10.6445 58.4961L9.375 58.6914L5.95703 59.1797H5.66406L5.85938 58.5938L6.73828 57.7148L7.42188 56.9336L8.30078 55.8594L9.375 54.6875L10.0586 53.9062L11.1328 52.7344L11.8164 51.9531L12.6953 50.8789L13.1836 50.3906L14.1602 49.3164L14.8438 48.5352L15.918 47.2656L17.3828 45.7031L18.0664 44.9219L19.1406 43.6523L19.7266 42.8711L20.2148 42.3828L21.0938 41.4062L21.7773 40.625L23.1445 39.1602L24.3164 37.793L25.0977 37.0117L25.9766 35.8398H26.1719L26.3672 35.4492L27.7344 33.9844L29.4922 32.0312L30.1758 31.25L30.957 30.2734L31.8359 29.1992L32.6172 28.2227Z" fill="#213645"/>
<path d="M46.3867 26.9531H47.0703L47.168 27.2461L47.2656 29.1992V40.332L46.7773 42.0898L45.8984 43.75L45.1172 44.7266L44.2383 45.6055L42.8711 46.4844L41.3086 47.0703L40.8203 47.168H22.9492L22.8516 46.875L22.7539 45.0195L24.0234 44.8242H25.3906L25.7812 44.7266L25.8789 44.4336L39.5508 44.3359L40.7227 44.1406L42.0898 43.457L43.0664 42.5781L43.6523 41.6992L44.043 40.918L44.2383 40.2344L44.3359 31.3477L44.4336 29.0039L44.9219 28.5156L45.0195 28.2227L45.8008 27.5391L46.3867 26.9531Z" fill="#213645"/>
<path d="M30.0781 25.3906L31.543 26.8555L31.9336 27.1484L31.8359 27.5391L31.0547 28.2227L30.1758 29.2969L29.3945 30.0781L28.5156 31.1523L27.5391 32.2266L26.8555 33.0078L25.9766 33.9844L25.0977 35.0586L23.9258 36.3281L23.2422 37.1094L22.3633 38.0859L20.2148 40.4297L19.3359 41.5039L18.1641 42.7734L17.4805 43.5547L16.6016 44.5312L15.7227 45.6055L14.6484 46.7773L13.9648 47.5586L12.207 49.5117L12.0117 49.8047H11.8164L11.6211 50.1953L10.5469 51.3672L9.66797 52.4414L8.59375 53.6133L7.71484 54.6875L6.83594 55.6641L5.95703 56.7383L5.37109 57.1289L5.27344 56.6406L5.17578 54.7852V53.6133L5.85938 52.832L6.64062 52.0508L7.32422 51.2695L8.59375 49.9023L9.27734 49.1211L10.4492 47.7539L11.8164 46.0938L12.5977 45.2148L13.2812 44.4336L14.6484 42.9688L15.332 42.1875L16.4062 41.0156L17.0898 40.2344L19.4336 37.5L20.1172 36.8164L20.8008 36.0352L21.9727 34.668L22.8516 33.6914L23.5352 32.8125L24.6094 31.6406L25.7812 30.3711L26.4648 29.5898L27.4414 28.5156L28.125 27.7344L29.1016 26.4648L30.0781 25.3906Z" fill="#213645"/>
<path d="M30.8594 2.83203H40.8203L42.7734 3.41797L43.8477 4.00391L45.0195 5.07812L45.7031 5.85938L46.4844 7.22656L47.0703 8.98438L47.2656 10.1562V13.7695L47.0703 13.9648L45.2148 12.1094L44.7266 11.8164V11.6211L44.3359 11.4258L44.2383 10.0586L43.8477 8.78906L43.2617 7.71484L42.3828 6.73828L41.4062 6.05469L40.0391 5.66406H35.1562L34.375 5.27344L31.7383 4.19922L30.5664 3.71094L30.1758 3.41797H30.5664L30.6641 2.92969L30.8594 2.83203Z" fill="#213645"/>
<path d="M37.3047 5.56641H40.0391L41.4062 5.95703L42.4805 6.73828L43.1641 7.42188L43.9453 8.78906L44.3359 10.0586V11.4258L42.9688 10.6445L41.6016 10.0586L39.8438 9.66797L38.8672 9.57031H36.0352L35.9375 6.64062L35.7422 5.95703L35.3516 5.66406L37.3047 5.56641Z" fill="#7BB5D8"/>
<path d="M35.3516 31.6406H35.4492L35.3516 33.3984L35.1562 35.0586V38.8672L35.4492 43.1641V43.9453L32.6172 44.043V37.6953L31.0547 37.5977L30.5664 37.5L30.3711 36.1328H32.4219L32.9102 35.8398L33.8867 33.9844L34.668 32.7148L35.1562 31.8359L35.3516 31.6406Z" fill="#213645"/>
<path d="M39.3555 14.7461L40.2344 14.8438L41.0156 15.1367L41.7969 15.8203L42.1875 16.3086L42.4805 16.9922V18.457L42.0898 19.4336L41.5039 20.1172L40.8203 20.5078L40.0391 20.7031H39.3555L38.2812 20.3125L37.5977 19.8242L37.0117 18.9453L36.7188 17.9688V17.0898L37.0117 16.2109L37.793 15.332L38.7695 14.8438L39.3555 14.7461Z" fill="#F0F4F7"/>
<path d="M30.1758 38.4766H30.2734V43.9453H25.8789L25.7812 41.7969L26.9531 41.6016H27.4414V38.8672L28.9062 38.5742L30.1758 38.4766Z" fill="#213645"/>
<path d="M24.3164 6.25L25.293 6.54297L26.7578 7.22656L27.0508 7.32422V10.7422L26.1719 10.4492L24.4141 9.76562L24.3164 9.66797V6.25Z" fill="#F0F4F7"/>
<path d="M18.2617 6.34766H18.5547V9.96094L17.3828 10.3516L16.4062 10.8398H16.1133V7.22656L17.6758 6.64062L18.2617 6.34766Z" fill="#F1F4F7"/>
<path d="M24.3164 12.4023L26.1719 13.1836L27.0508 13.5742V16.6016L26.2695 16.4062L24.3164 15.7227V12.4023Z" fill="#EDF2F6"/>
<path d="M18.2617 30.8594H18.5547V34.082L18.457 34.2773L16.6016 34.7656L16.1133 34.8633V31.3477L18.2617 30.8594Z" fill="#F0F4F7"/>
<path d="M18.1641 24.6094H18.457L18.5547 24.9023V27.9297L17.6758 28.2227L16.1133 28.6133V25.293L17.1875 24.9023L18.1641 24.6094Z" fill="#F1F5F7"/>
<path d="M18.3594 12.5977H18.5547V15.8203L17.7734 16.1133L16.4062 16.6016H16.1133V13.3789L18.3594 12.5977Z" fill="#EEF3F6"/>
<path d="M18.1641 18.5547H18.5547V21.582L18.457 21.875L17.2852 22.0703L16.3086 22.4609H16.1133V19.2383L17.7734 18.75L18.1641 18.5547Z" fill="#EFF3F6"/>
<path d="M24.3164 18.457L25.6836 19.043L26.7578 19.5312L26.9531 19.6289V22.2656L26.8555 22.3633L26.0742 22.2656L24.3164 21.6797V18.457Z" fill="#EFF4F6"/>
<path d="M39.2578 16.1133H40.0391L40.8203 16.6016L41.1133 17.1875V18.0664L40.625 18.8477L40.332 19.1406L40.0391 19.2383H39.0625L38.4766 18.75L38.0859 18.0664V17.2852L38.3789 16.6992L39.2578 16.1133Z" fill="#7BB5D8"/>
<path d="M46.3867 26.9531H47.0703L47.168 27.2461L47.0703 30.2734H46.4844L46.0938 30.3711H45.5078V30.5664L45.2148 30.7617L44.5312 30.8594L44.4336 30.6641V29.0039L44.9219 28.5156L45.0195 28.2227L45.8008 27.5391L46.3867 26.9531Z" fill="#304B5D"/>
<path d="M42.8711 12.5L43.5547 12.6953L44.3359 13.2812L44.8242 13.6719V13.8672H45.0195L46.0938 15.332L46.875 16.8945L47.0703 17.8711L46.875 18.0664L46.582 17.1875V17.4805L46.6797 17.9688L46.2891 17.6758L45.9961 16.6016L45.5078 16.3086L45.0195 15.7227L44.5312 15.4297L43.9453 14.9414L43.8477 14.5508H43.6523L43.0664 13.5742L42.8711 12.8906V12.5Z" fill="#304A5C"/>
<path d="M30.6641 12.0117L31.1523 12.1094L30.957 12.5977L30.2734 13.1836L28.9062 15.2344L28.418 16.3086L28.0273 18.0664L27.7344 18.2617L27.6367 18.6523L27.5391 18.5547L27.4414 17.8711L27.1484 17.5781L27.0508 16.6992L27.2461 15.918L27.6367 15.4297L27.9297 15.332L28.2227 14.7461H28.418V14.4531L28.8086 14.3555L29.0039 13.3789L29.7852 12.9883L30.0781 12.8906L30.3711 12.207L30.6641 12.0117Z" fill="#2F4A5C"/>
<path d="M13.1836 37.5977H13.2812V42.3828L12.9883 42.6758L12.207 42.5781V43.0664H12.1094V39.9414L12.207 37.9883L13.0859 37.793L13.1836 37.5977Z" fill="#CDD4D7"/>
<path d="M13.3789 33.3008H13.4766V37.3047H13.6719L13.9648 37.793L14.3555 40.2344L14.8438 40.7227L13.2812 42.2852H13.1836V39.5508L13.2812 37.5977L13.3789 33.3008Z" fill="#213746"/>
<path d="M11.4258 32.0312H11.5234V34.668L9.96094 35.2539L9.86328 34.8633V32.4219L10.7422 32.1289L11.4258 32.0312Z" fill="#F1F4F6"/>
<path d="M11.3281 26.3672H11.4258L11.5234 29.0039L10.2539 29.4922L9.86328 29.5898V26.8555L10.7422 26.5625L11.3281 26.3672Z" fill="#F3F7F9"/>
<path d="M11.1328 20.8008H11.4258V23.3398L10.5469 23.7305L9.86328 24.0234V21.1914L11.1328 20.8008Z" fill="#F4F7F9"/>
<path d="M11.2305 10.2539L11.5234 10.3516V12.5977L10.1562 13.3789L9.86328 13.5742L9.76562 10.8398L10.9375 10.3516L11.2305 10.2539Z" fill="#F2F6F8"/>
<path d="M11.1328 15.5273H11.4258L11.5234 17.8711L9.96094 18.6523H9.86328V16.0156L11.1328 15.5273Z" fill="#F3F6F8"/>
<path d="M30.8594 2.83203L31.8359 2.92969L32.6172 3.02734L32.7148 3.41797L33.1055 3.61328V3.90625L33.3008 4.00391L33.2031 4.39453L33.4961 4.6875L33.2031 4.78516L30.7617 3.80859L30.1758 3.51562L30.5664 3.41797L30.6641 2.92969L30.8594 2.83203Z" fill="#304B5D"/>
<path d="M27.5391 18.75L27.832 19.043V21.6797L27.7344 22.2656L27.2461 22.0703L27.1484 21.9727L26.9531 20.8984V19.6289L26.3672 19.4336L26.4648 19.2383L27.1484 19.3359L27.2461 19.043H27.5391V18.75Z" fill="#334F62"/>
<path d="M25.8789 43.9453H30.2734L30.0781 44.1406L29.3945 44.2383L32.6172 44.3359V44.4336H25.8789V43.9453Z" fill="#B5C7D1"/>
<path d="M12.5 2.83203H13.8672L14.0625 3.02734L13.8672 3.125L13.6719 3.71094L12.8906 4.10156L12.1094 4.00391L12.207 3.61328L12.1094 3.41797L12.207 3.02734L12.5 2.83203Z" fill="#304A5D"/>
<path d="M46.6797 11.9141H47.168L47.2656 13.7695L47.0703 13.9648L46.582 13.4766L45.9961 12.793L45.7031 12.3047L46.582 12.0117L46.6797 11.9141Z" fill="#304A5D"/>
<path d="M23.1445 44.9219H23.7305L23.6328 45.8984L23.4375 46.3867L23.3398 46.9727L24.2188 47.0703V47.168H22.9492L22.8516 46.875L22.7539 45.0195L23.1445 44.9219Z" fill="#304A5C"/>
<path d="M39.2578 16.1133H40.0391L40.8203 16.6016L40.7227 16.7969L40.332 16.5039L39.9414 16.4062H39.6484L39.2578 16.5039L38.9648 16.9922H38.7695V17.3828H38.5742L38.3789 17.8711L38.6719 18.6523L39.2578 19.043L39.8438 19.1406V19.2383H39.0625L38.4766 18.75L38.0859 18.0664V17.2852L38.3789 16.6992L39.2578 16.1133Z" fill="#69A2C4"/>
<path d="M11.8164 38.3789H11.9141L12.0117 39.1602L12.1094 38.5742H12.207L12.1094 43.5547L12.0117 43.8477H11.8164V38.3789Z" fill="#81A9C0"/>
<path d="M37.3047 5.56641H40.0391V5.66406L38.6719 5.76172L37.3047 6.05469L35.9375 6.15234V5.95703L35.3516 5.76172V5.66406L37.3047 5.56641Z" fill="#649FC3"/>
<path d="M32.8125 43.9453H35.5469V44.3359H32.6172V44.043L32.8125 43.9453Z" fill="#B9CBD6"/>
<path d="M16.0156 34.375H16.1133V34.8633L16.8945 34.5703H17.2852V35.1562L17.1875 35.5469L16.6992 35.7422L16.2109 35.6445L16.0156 35.2539V34.375Z" fill="#223847"/>
<path d="M9.66797 41.8945H9.76562V44.1406L9.66797 44.3359H10.5469V44.4336H7.91016L7.42188 44.3359L7.61719 44.1406L9.66797 44.043V41.8945Z" fill="#BAC9D0"/>
<path d="M35.3516 31.6406H35.4492L35.3516 33.3984L35.2539 34.1797L35.0586 33.9844L34.8633 33.1055L34.7656 32.9102L34.5703 33.0078L34.7656 32.4219L35.3516 31.6406Z" fill="#2E495B"/>
<path d="M28.125 23.7305L28.3203 24.0234L28.418 24.6094L28.7109 24.707V25.0977L28.125 25.4883H27.9297V25.0977L27.832 25V24.3164L28.0273 23.8281L28.125 23.7305Z" fill="#2F4A5C"/>
<path d="M44.9219 28.3203V28.6133L44.5312 29.0039L44.4336 31.3477H44.3359V29.1992H43.6523L44.043 28.8086L44.9219 28.3203Z" fill="#66A0C3"/>
<path d="M28.8086 2.92969L29.4922 3.02734L30.6641 2.92969L30.5664 3.41797L30.0781 3.51562L28.9062 3.125L28.8086 2.92969Z" fill="#96B5C6"/>
<path d="M13.8672 2.83203L14.4531 2.92969L14.6484 3.02734V3.32031L13.8672 3.71094L13.6719 3.61328L13.8672 2.83203Z" fill="#69A1C3"/>
<path d="M46.875 26.1719L47.168 26.2695V27.2461L47.0703 26.9531H46.4844L46.875 26.1719Z" fill="#8FB2C6"/>
<path d="M29.1992 18.8477L29.3945 19.2383V19.6289L29.2969 20.9961H29.1992V18.8477Z" fill="#335064"/>
<path d="M39.4531 16.1133H40.0391L40.8203 16.6016L40.7227 16.7969L40.332 16.5039L39.9414 16.4062H39.6484L39.3555 16.2109L39.4531 16.1133Z" fill="#68A1C3"/>
<path d="M15.2344 2.73438L15.5273 2.83203L14.8438 3.22266H14.6484V3.02734L14.1602 2.92969V2.83203H15.0391L15.2344 2.73438Z" fill="#AEBFC7"/>
<path d="M30.0781 25.3906L30.3711 25.7812L29.8828 25.9766L29.5898 26.0742L29.4922 26.2695V25.9766L30.0781 25.3906Z" fill="#2D4657"/>
<path d="M38.3789 18.457H38.5742L39.0625 18.9453L39.8438 19.1406V19.2383H39.0625L38.4766 18.75L38.3789 18.457Z" fill="#6CA5C6"/>
</svg>
